<svg width="242" height="228" viewBox="0 0 242 228" fill="none" xmlns="http://www.w3.org/2000/svg" id="stack_example">
    <g clip-path="url(#clip0_3608_86109)">
    <rect x="1" y="1" width="240" height="226" rx="12" fill="white"/>
    <path d="M12.8496 22.1992C14.7363 22.1992 15.9727 21.2148 15.9727 19.6328V19.627C15.9727 18.4082 15.2754 17.6992 13.5117 17.3066L12.5742 17.0957C11.4258 16.8438 10.9629 16.3867 10.9629 15.7129V15.707C10.9629 14.8223 11.7773 14.3242 12.832 14.3184C13.9336 14.3125 14.6367 14.8633 14.7539 15.6074L14.7656 15.6836H15.8203L15.8145 15.6016C15.7266 14.3418 14.5488 13.3457 12.8613 13.3457C11.1152 13.3457 9.89062 14.3359 9.88477 15.7363V15.7422C9.88477 16.9668 10.6172 17.7461 12.3105 18.1211L13.248 18.3262C14.4082 18.584 14.8945 19.0645 14.8945 19.7676V19.7734C14.8945 20.6348 14.0566 21.2266 12.9082 21.2266C11.6895 21.2266 10.8105 20.6934 10.7344 19.8496L10.7285 19.7852H9.67383L9.67969 19.8496C9.80273 21.2266 10.998 22.1992 12.8496 22.1992ZM20.1797 22.1113C21.668 22.1113 22.5703 21.2676 22.7871 20.4121L22.7988 20.3652H21.7793L21.7559 20.418C21.5859 20.7988 21.0586 21.2031 20.2031 21.2031C19.0781 21.2031 18.3574 20.4414 18.3281 19.1348H22.875V18.7363C22.875 16.8496 21.832 15.5723 20.1152 15.5723C18.3984 15.5723 17.2852 16.9082 17.2852 18.8594V18.8652C17.2852 20.8457 18.375 22.1113 20.1797 22.1113ZM20.1094 16.4805C21.041 16.4805 21.7324 17.0723 21.8379 18.3203H18.3457C18.457 17.1191 19.1719 16.4805 20.1094 16.4805ZM24.457 22H25.4766V18.0859C25.4766 17.1602 26.168 16.5449 27.1406 16.5449C27.3633 16.5449 27.5566 16.5684 27.7676 16.6035V15.6133C27.668 15.5957 27.4512 15.5723 27.2578 15.5723C26.4023 15.5723 25.8105 15.959 25.5703 16.6211H25.4766V15.6836H24.457V22ZM30.8145 22H31.8457L34.1836 15.6836H33.1055L31.377 20.8867H31.2832L29.5547 15.6836H28.4766L30.8145 22ZM36.0703 14.4648C36.457 14.4648 36.7734 14.1484 36.7734 13.7617C36.7734 13.375 36.457 13.0586 36.0703 13.0586C35.6836 13.0586 35.3672 13.375 35.3672 13.7617C35.3672 14.1484 35.6836 14.4648 36.0703 14.4648ZM35.5547 22H36.5742V15.6836H35.5547V22ZM41.0801 22.1113C42.5977 22.1113 43.4473 21.2969 43.7051 20.1543L43.7168 20.0898L42.709 20.0957L42.6973 20.1309C42.4629 20.834 41.9238 21.209 41.0742 21.209C39.9492 21.209 39.2227 20.2773 39.2227 18.8242V18.8125C39.2227 17.3887 39.9375 16.4746 41.0742 16.4746C41.9824 16.4746 42.5449 16.9785 42.7031 17.5996L42.709 17.6172H43.7227L43.7168 17.582C43.5293 16.457 42.6094 15.5723 41.0742 15.5723C39.3047 15.5723 38.1797 16.8496 38.1797 18.8125V18.8242C38.1797 20.8281 39.3105 22.1113 41.0801 22.1113ZM47.7891 22.1113C49.2773 22.1113 50.1797 21.2676 50.3965 20.4121L50.4082 20.3652H49.3887L49.3652 20.418C49.1953 20.7988 48.668 21.2031 47.8125 21.2031C46.6875 21.2031 45.9668 20.4414 45.9375 19.1348H50.4844V18.7363C50.4844 16.8496 49.4414 15.5723 47.7246 15.5723C46.0078 15.5723 44.8945 16.9082 44.8945 18.8594V18.8652C44.8945 20.8457 45.9844 22.1113 47.7891 22.1113ZM47.7188 16.4805C48.6504 16.4805 49.3418 17.0723 49.4473 18.3203H45.9551C46.0664 17.1191 46.7812 16.4805 47.7188 16.4805ZM54.8965 22H56.0039L56.8535 19.5801H60.2168L61.0664 22H62.1738L59.0566 13.5449H58.0137L54.8965 22ZM58.4883 14.9102H58.582L59.9062 18.6836H57.1641L58.4883 14.9102ZM63.5273 24.1094H64.5469V21.0039H64.6406C64.9863 21.6777 65.7422 22.1113 66.6094 22.1113C68.2148 22.1113 69.2578 20.8281 69.2578 18.8477V18.8359C69.2578 16.8672 68.209 15.5723 66.6094 15.5723C65.7305 15.5723 65.0273 15.9883 64.6406 16.6914H64.5469V15.6836H63.5273V24.1094ZM66.375 21.209C65.2266 21.209 64.5234 20.3066 64.5234 18.8477V18.8359C64.5234 17.377 65.2266 16.4746 66.375 16.4746C67.5293 16.4746 68.2148 17.3652 68.2148 18.8359V18.8477C68.2148 20.3184 67.5293 21.209 66.375 21.209ZM70.8516 24.1094H71.8711V21.0039H71.9648C72.3105 21.6777 73.0664 22.1113 73.9336 22.1113C75.5391 22.1113 76.582 20.8281 76.582 18.8477V18.8359C76.582 16.8672 75.5332 15.5723 73.9336 15.5723C73.0547 15.5723 72.3516 15.9883 71.9648 16.6914H71.8711V15.6836H70.8516V24.1094ZM73.6992 21.209C72.5508 21.209 71.8477 20.3066 71.8477 18.8477V18.8359C71.8477 17.377 72.5508 16.4746 73.6992 16.4746C74.8535 16.4746 75.5391 17.3652 75.5391 18.8359V18.8477C75.5391 20.3184 74.8535 21.209 73.6992 21.209ZM80.7715 22.1113C82.5703 22.1113 83.6836 20.8691 83.6836 18.8477V18.8359C83.6836 16.8086 82.5703 15.5723 80.7715 15.5723C78.9727 15.5723 77.8594 16.8086 77.8594 18.8359V18.8477C77.8594 20.8691 78.9727 22.1113 80.7715 22.1113ZM80.7715 21.209C79.5762 21.209 78.9023 20.3359 78.9023 18.8477V18.8359C78.9023 17.3418 79.5762 16.4746 80.7715 16.4746C81.9668 16.4746 82.6406 17.3418 82.6406 18.8359V18.8477C82.6406 20.3359 81.9668 21.209 80.7715 21.209ZM85.8047 14.4648C86.1914 14.4648 86.5078 14.1484 86.5078 13.7617C86.5078 13.375 86.1914 13.0586 85.8047 13.0586C85.418 13.0586 85.1016 13.375 85.1016 13.7617C85.1016 14.1484 85.418 14.4648 85.8047 14.4648ZM85.2891 22H86.3086V15.6836H85.2891V22ZM88.2305 22H89.25V18.2617C89.25 17.1543 89.8887 16.4746 90.8965 16.4746C91.9043 16.4746 92.373 17.0195 92.373 18.1562V22H93.3926V17.9102C93.3926 16.4102 92.6016 15.5723 91.1836 15.5723C90.252 15.5723 89.6602 15.9648 89.3438 16.6328H89.25V15.6836H88.2305V22ZM97.4824 22.0469C97.6816 22.0469 97.875 22.0234 98.0742 21.9883V21.1211C97.8867 21.1387 97.7871 21.1445 97.6055 21.1445C96.9492 21.1445 96.6914 20.8457 96.6914 20.1016V16.5273H98.0742V15.6836H96.6914V14.0488H95.6367V15.6836H94.6406V16.5273H95.6367V20.3594C95.6367 21.5664 96.1816 22.0469 97.4824 22.0469ZM99.5977 22H100.617V18.0859C100.617 17.1953 101.244 16.4746 102.07 16.4746C102.867 16.4746 103.383 16.9609 103.383 17.7109V22H104.402V17.9395C104.402 17.1367 104.982 16.4746 105.861 16.4746C106.752 16.4746 107.18 16.9375 107.18 17.8691V22H108.199V17.6348C108.199 16.3105 107.479 15.5723 106.189 15.5723C105.316 15.5723 104.596 16.0117 104.256 16.6797H104.162C103.869 16.0234 103.271 15.5723 102.416 15.5723C101.59 15.5723 100.992 15.9648 100.711 16.6445H100.617V15.6836H99.5977V22ZM112.617 22.1113C114.105 22.1113 115.008 21.2676 115.225 20.4121L115.236 20.3652H114.217L114.193 20.418C114.023 20.7988 113.496 21.2031 112.641 21.2031C111.516 21.2031 110.795 20.4414 110.766 19.1348H115.312V18.7363C115.312 16.8496 114.27 15.5723 112.553 15.5723C110.836 15.5723 109.723 16.9082 109.723 18.8594V18.8652C109.723 20.8457 110.812 22.1113 112.617 22.1113ZM112.547 16.4805C113.479 16.4805 114.17 17.0723 114.275 18.3203H110.783C110.895 17.1191 111.609 16.4805 112.547 16.4805ZM116.895 22H117.914V18.2617C117.914 17.1543 118.553 16.4746 119.561 16.4746C120.568 16.4746 121.037 17.0195 121.037 18.1562V22H122.057V17.9102C122.057 16.4102 121.266 15.5723 119.848 15.5723C118.916 15.5723 118.324 15.9648 118.008 16.6328H117.914V15.6836H116.895V22ZM126.146 22.0469C126.346 22.0469 126.539 22.0234 126.738 21.9883V21.1211C126.551 21.1387 126.451 21.1445 126.27 21.1445C125.613 21.1445 125.355 20.8457 125.355 20.1016V16.5273H126.738V15.6836H125.355V14.0488H124.301V15.6836H123.305V16.5273H124.301V20.3594C124.301 21.5664 124.846 22.0469 126.146 22.0469ZM130.312 22.1113C131.748 22.1113 132.844 21.332 132.844 20.207V20.1953C132.844 19.293 132.27 18.7773 131.08 18.4902L130.107 18.2559C129.363 18.0742 129.047 17.8047 129.047 17.377V17.3652C129.047 16.8086 129.598 16.4219 130.348 16.4219C131.109 16.4219 131.602 16.7676 131.736 17.2656H132.738C132.598 16.2344 131.678 15.5723 130.354 15.5723C129.012 15.5723 128.004 16.3633 128.004 17.4121V17.418C128.004 18.3262 128.537 18.8418 129.721 19.123L130.699 19.3574C131.479 19.5449 131.801 19.8438 131.801 20.2715V20.2832C131.801 20.8574 131.197 21.2617 130.348 21.2617C129.539 21.2617 129.035 20.916 128.865 20.3887H127.822C127.939 21.4316 128.906 22.1113 130.312 22.1113ZM139.934 24.1094H140.789C139.939 23.0254 139.307 20.6934 139.307 18.6426C139.307 16.6094 139.939 14.2598 140.789 13.1758H139.934C138.785 14.6934 138.27 16.4688 138.27 18.6426C138.27 20.8223 138.791 22.5918 139.934 24.1094ZM144.445 22H145.5V13.5449H144.451L142.201 15.1621V16.2754L144.352 14.7168H144.445V22ZM150.832 22.1406C152.625 22.1406 153.902 21.1328 153.902 19.7148V19.7031C153.902 18.6602 153.17 17.793 152.086 17.541V17.5176C153.012 17.2305 153.598 16.5273 153.598 15.6367V15.625C153.598 14.3477 152.432 13.4043 150.832 13.4043C149.232 13.4043 148.066 14.3477 148.066 15.625V15.6367C148.066 16.5273 148.652 17.2305 149.578 17.5176V17.541C148.494 17.793 147.762 18.6602 147.762 19.7031V19.7148C147.762 21.1328 149.039 22.1406 150.832 22.1406ZM150.832 17.125C149.812 17.125 149.115 16.5449 149.115 15.7246V15.7129C149.115 14.8926 149.812 14.3125 150.832 14.3125C151.852 14.3125 152.549 14.8926 152.549 15.7129V15.7246C152.549 16.5449 151.852 17.125 150.832 17.125ZM150.832 21.2207C149.666 21.2207 148.834 20.5645 148.834 19.6504V19.6387C148.834 18.7129 149.66 18.0508 150.832 18.0508C152.004 18.0508 152.83 18.7129 152.83 19.6387V19.6504C152.83 20.5645 151.998 21.2207 150.832 21.2207ZM156.164 24.1094C157.307 22.5918 157.828 20.8223 157.828 18.6426C157.828 16.4688 157.312 14.6934 156.164 13.1758H155.309C156.158 14.2598 156.791 16.6094 156.791 18.6426C156.791 20.6934 156.158 23.0254 155.309 24.1094H156.164Z" fill="#444444"/>
    <path d="M241 34H1V36H241V34Z" fill="#E5E5E5" mask="url(#path-3-inside-1_3608_86109)"/>
    <path d="M24.5137 64H25.7441V54.1357H24.5205L21.8955 56.0225V57.3213L24.4043 55.5029H24.5137V64Z" fill="#181818"/>
    <path fill-rule="evenodd" clip-rule="evenodd" d="M59 53.4619C55.9539 53.4619 53.4615 55.9542 53.4615 59.0004C53.4615 62.0465 55.9539 64.5388 59 64.5388C62.0462 64.5388 64.5385 62.0465 64.5385 59.0004C64.5385 55.9542 62.0462 53.4619 59 53.4619ZM54.8462 59.0004C54.8462 56.7157 56.7154 54.8465 59 54.8465C59.9 54.8465 60.7308 55.1234 61.4 55.608L55.6077 61.4004C55.1231 60.7311 54.8462 59.9004 54.8462 59.0004ZM58.9999 63.1542C58.0999 63.1542 57.2691 62.8773 56.5999 62.3927L62.3922 56.6004C62.8768 57.2696 63.1538 58.1004 63.1538 59.0004C63.1538 61.285 61.2845 63.1542 58.9999 63.1542Z" fill="#BA0517"/>
    <path d="M72.8086 63.1758C74.4346 63.1758 75.6016 62.2334 75.7871 60.8223V60.7881H74.5518L74.5469 60.8125C74.3662 61.5889 73.7021 62.0869 72.8086 62.0869C71.6074 62.0869 70.8604 61.0859 70.8604 59.4795V59.4697C70.8604 57.8682 71.6074 56.8672 72.8037 56.8672C73.6924 56.8672 74.3662 57.4189 74.5469 58.2539L74.5518 58.2734H75.7871V58.2344C75.6211 56.7939 74.4053 55.7783 72.8037 55.7783C70.8066 55.7783 69.5713 57.1895 69.5713 59.4746V59.4844C69.5713 61.7598 70.8115 63.1758 72.8086 63.1758ZM78.5215 63.0879C79.2246 63.0879 79.791 62.7852 80.084 62.2676H80.167V63H81.3682V59.3525C81.3682 58.2246 80.5967 57.5605 79.2246 57.5605C77.9551 57.5605 77.0957 58.1562 76.9785 59.0547L76.9736 59.0986H78.1211L78.126 59.0791C78.248 58.7275 78.6094 58.5273 79.166 58.5273C79.8203 58.5273 80.167 58.8203 80.167 59.3525V59.8115L78.7949 59.8945C77.4961 59.9727 76.7686 60.5293 76.7686 61.4814V61.4912C76.7686 62.4629 77.5059 63.0879 78.5215 63.0879ZM77.9697 61.4326V61.4229C77.9697 60.9834 78.2871 60.7344 78.9658 60.6904L80.167 60.6123V61.042C80.167 61.6768 79.625 62.1553 78.8926 62.1553C78.3555 62.1553 77.9697 61.8867 77.9697 61.4326ZM82.8281 63H84.0439V59.8896C84.0439 59.0889 84.4932 58.5811 85.2158 58.5811C85.9531 58.5811 86.29 59.001 86.29 59.8311V63H87.5059V59.5479C87.5059 58.2783 86.8564 57.5605 85.665 57.5605C84.8936 57.5605 84.3809 57.9072 84.127 58.4785H84.0439V57.6631H82.8281V63ZM88.9414 63H90.1572V59.8896C90.1572 59.0889 90.6064 58.5811 91.3291 58.5811C92.0664 58.5811 92.4033 59.001 92.4033 59.8311V63H93.6191V59.5479C93.6191 58.2783 92.9697 57.5605 91.7783 57.5605C91.0068 57.5605 90.4941 57.9072 90.2402 58.4785H90.1572V57.6631H88.9414V63ZM97.3594 63.1074C98.9561 63.1074 99.9277 62.0625 99.9277 60.334V60.3242C99.9277 58.6055 98.9512 57.5605 97.3594 57.5605C95.7725 57.5605 94.791 58.6104 94.791 60.3242V60.334C94.791 62.0625 95.7578 63.1074 97.3594 63.1074ZM97.3594 62.1211C96.5146 62.1211 96.0312 61.4619 96.0312 60.3389V60.3291C96.0312 59.2061 96.5146 58.542 97.3594 58.542C98.1992 58.542 98.6826 59.2061 98.6826 60.3291V60.3389C98.6826 61.4619 98.2041 62.1211 97.3594 62.1211ZM103.248 63.0244C103.482 63.0244 103.707 63.0049 103.883 62.9707V62.0332C103.736 62.0479 103.644 62.0527 103.473 62.0527C102.965 62.0527 102.755 61.8281 102.755 61.2959V58.6055H103.883V57.6631H102.755V56.3545H101.52V57.6631H100.689V58.6055H101.52V61.584C101.52 62.6143 102.022 63.0244 103.248 63.0244ZM110.826 63.1758C112.452 63.1758 113.619 62.2334 113.805 60.8223V60.7881H112.569L112.564 60.8125C112.384 61.5889 111.72 62.0869 110.826 62.0869C109.625 62.0869 108.878 61.0859 108.878 59.4795V59.4697C108.878 57.8682 109.625 56.8672 110.821 56.8672C111.71 56.8672 112.384 57.4189 112.564 58.2539L112.569 58.2734H113.805V58.2344C113.639 56.7939 112.423 55.7783 110.821 55.7783C108.824 55.7783 107.589 57.1895 107.589 59.4746V59.4844C107.589 61.7598 108.829 63.1758 110.826 63.1758ZM117.389 63.1074C118.985 63.1074 119.957 62.0625 119.957 60.334V60.3242C119.957 58.6055 118.98 57.5605 117.389 57.5605C115.802 57.5605 114.82 58.6104 114.82 60.3242V60.334C114.82 62.0625 115.787 63.1074 117.389 63.1074ZM117.389 62.1211C116.544 62.1211 116.061 61.4619 116.061 60.3389V60.3291C116.061 59.2061 116.544 58.542 117.389 58.542C118.229 58.542 118.712 59.2061 118.712 60.3291V60.3389C118.712 61.4619 118.233 62.1211 117.389 62.1211ZM121.178 63H122.394V59.7529C122.394 59.0889 122.833 58.5811 123.434 58.5811C124.029 58.5811 124.396 58.9473 124.396 59.5381V63H125.611V59.665C125.611 59.0547 126.021 58.5811 126.656 58.5811C127.306 58.5811 127.623 58.9326 127.623 59.626V63H128.839V59.3281C128.839 58.2197 128.194 57.5605 127.12 57.5605C126.378 57.5605 125.763 57.9414 125.504 58.5225H125.421C125.191 57.9316 124.664 57.5605 123.941 57.5605C123.243 57.5605 122.706 57.8975 122.477 58.4932H122.394V57.6631H121.178V63ZM130.279 64.7725H131.495V62.1504H131.578C131.856 62.7266 132.467 63.0879 133.199 63.0879C134.552 63.0879 135.392 62.0381 135.392 60.3389V60.3291C135.392 58.6396 134.537 57.5752 133.199 57.5752C132.452 57.5752 131.871 57.917 131.578 58.498H131.495V57.6631H130.279V64.7725ZM132.818 62.0625C131.993 62.0625 131.48 61.4033 131.48 60.334V60.3242C131.48 59.2549 131.993 58.6006 132.818 58.6006C133.648 58.6006 134.151 59.2549 134.151 60.3291V60.3389C134.151 61.4082 133.648 62.0625 132.818 62.0625ZM136.666 63H137.882V55.5977H136.666V63ZM141.705 63.1074C143.155 63.1074 143.868 62.2725 144.039 61.584L144.054 61.54H142.896L142.882 61.5742C142.765 61.8184 142.389 62.1504 141.729 62.1504C140.904 62.1504 140.387 61.5938 140.372 60.6367H144.103V60.2363C144.103 58.625 143.165 57.5605 141.646 57.5605C140.128 57.5605 139.156 58.6592 139.156 60.3389V60.3438C139.156 62.043 140.118 63.1074 141.705 63.1074ZM141.661 58.5127C142.34 58.5127 142.833 58.9473 142.916 59.8213H140.382C140.475 58.9717 140.982 58.5127 141.661 58.5127ZM147.418 63.0244C147.652 63.0244 147.877 63.0049 148.053 62.9707V62.0332C147.906 62.0479 147.813 62.0527 147.643 62.0527C147.135 62.0527 146.925 61.8281 146.925 61.2959V58.6055H148.053V57.6631H146.925V56.3545H145.689V57.6631H144.859V58.6055H145.689V61.584C145.689 62.6143 146.192 63.0244 147.418 63.0244ZM151.5 63.1074C152.95 63.1074 153.663 62.2725 153.834 61.584L153.849 61.54H152.691L152.677 61.5742C152.56 61.8184 152.184 62.1504 151.524 62.1504C150.699 62.1504 150.182 61.5938 150.167 60.6367H153.897V60.2363C153.897 58.625 152.96 57.5605 151.441 57.5605C149.923 57.5605 148.951 58.6592 148.951 60.3389V60.3438C148.951 62.043 149.913 63.1074 151.5 63.1074ZM151.456 58.5127C152.135 58.5127 152.628 58.9473 152.711 59.8213H150.177C150.27 58.9717 150.777 58.5127 151.456 58.5127Z" fill="#444444"/>
    <rect x="9.5" y="43.5" width="223" height="31" rx="7.5" stroke="#E5E5E5"/>
    <path d="M22.1006 100H28.4854V98.8926H23.8096V98.7832L26.0518 96.4658C27.8359 94.627 28.3213 93.8066 28.3213 92.6787V92.665C28.3213 91.0723 27.002 89.9033 25.2793 89.9033C23.3926 89.9033 22.0391 91.1611 22.0322 92.9111L22.0459 92.918L23.2217 92.9248L23.2285 92.9111C23.2285 91.749 24.0146 90.9766 25.1973 90.9766C26.3594 90.9766 27.0635 91.7559 27.0635 92.7949V92.8086C27.0635 93.6699 26.6943 94.1826 25.4365 95.543L22.1006 99.1523V100Z" fill="#181818"/>
    <path fill-rule="evenodd" clip-rule="evenodd" d="M64.8616 98.8075L59.5769 90.269C59.3 89.8075 58.7 89.8075 58.4231 90.269L53.1385 98.8075C52.8154 99.3382 53.1385 100.077 53.7154 100.077H64.2846C64.8616 100.077 65.2077 99.3382 64.8616 98.8075ZM59 98.2303C58.6077 98.2303 58.3077 97.9303 58.3077 97.538C58.3077 97.1457 58.6077 96.8457 59 96.8457C59.3923 96.8457 59.6923 97.1457 59.6923 97.538C59.6923 97.9303 59.3923 98.2303 59 98.2303ZM59.6923 96.1536C59.6923 96.2921 59.6 96.3844 59.4615 96.3844H58.5384C58.4 96.3844 58.3077 96.2921 58.3077 96.1536V93.1536C58.3077 93.0152 58.4 92.9229 58.5384 92.9229H59.4615C59.6 92.9229 59.6923 93.0152 59.6923 93.1536V96.1536Z" fill="#FE9339"/>
    <path d="M72.8086 99.1758C74.4346 99.1758 75.6016 98.2334 75.7871 96.8223V96.7881H74.5518L74.5469 96.8125C74.3662 97.5889 73.7021 98.0869 72.8086 98.0869C71.6074 98.0869 70.8604 97.0859 70.8604 95.4795V95.4697C70.8604 93.8682 71.6074 92.8672 72.8037 92.8672C73.6924 92.8672 74.3662 93.4189 74.5469 94.2539L74.5518 94.2734H75.7871V94.2344C75.6211 92.7939 74.4053 91.7783 72.8037 91.7783C70.8066 91.7783 69.5713 93.1895 69.5713 95.4746V95.4844C69.5713 97.7598 70.8115 99.1758 72.8086 99.1758ZM78.5215 99.0879C79.2246 99.0879 79.791 98.7852 80.084 98.2676H80.167V99H81.3682V95.3525C81.3682 94.2246 80.5967 93.5605 79.2246 93.5605C77.9551 93.5605 77.0957 94.1562 76.9785 95.0547L76.9736 95.0986H78.1211L78.126 95.0791C78.248 94.7275 78.6094 94.5273 79.166 94.5273C79.8203 94.5273 80.167 94.8203 80.167 95.3525V95.8115L78.7949 95.8945C77.4961 95.9727 76.7686 96.5293 76.7686 97.4814V97.4912C76.7686 98.4629 77.5059 99.0879 78.5215 99.0879ZM77.9697 97.4326V97.4229C77.9697 96.9834 78.2871 96.7344 78.9658 96.6904L80.167 96.6123V97.042C80.167 97.6768 79.625 98.1553 78.8926 98.1553C78.3555 98.1553 77.9697 97.8867 77.9697 97.4326ZM82.8281 99H84.0439V95.8896C84.0439 95.0889 84.4932 94.5811 85.2158 94.5811C85.9531 94.5811 86.29 95.001 86.29 95.8311V99H87.5059V95.5479C87.5059 94.2783 86.8564 93.5605 85.665 93.5605C84.8936 93.5605 84.3809 93.9072 84.127 94.4785H84.0439V93.6631H82.8281V99ZM91.2314 99.1074C92.584 99.1074 93.3701 98.3799 93.5459 97.2861L93.5557 97.2471L92.4082 97.252L92.3984 97.2715C92.2471 97.833 91.8613 98.1211 91.2314 98.1211C90.4062 98.1211 89.9131 97.457 89.9131 96.3242V96.3145C89.9131 95.1963 90.4014 94.542 91.2314 94.542C91.8955 94.542 92.291 94.9131 92.4033 95.4307L92.4082 95.4453H93.5557V95.4258C93.4189 94.3223 92.5986 93.5605 91.2266 93.5605C89.6201 93.5605 88.6777 94.5908 88.6777 96.3145V96.3242C88.6777 98.0674 89.625 99.1074 91.2314 99.1074ZM96.998 99.1074C98.4482 99.1074 99.1611 98.2725 99.332 97.584L99.3467 97.54H98.1895L98.1748 97.5742C98.0576 97.8184 97.6816 98.1504 97.0225 98.1504C96.1973 98.1504 95.6797 97.5938 95.665 96.6367H99.3955V96.2363C99.3955 94.625 98.458 93.5605 96.9395 93.5605C95.4209 93.5605 94.4492 94.6592 94.4492 96.3389V96.3438C94.4492 98.043 95.4111 99.1074 96.998 99.1074ZM96.9541 94.5127C97.6328 94.5127 98.126 94.9473 98.209 95.8213H95.6748C95.7676 94.9717 96.2754 94.5127 96.9541 94.5127ZM100.66 99H101.876V91.5977H100.66V99ZM105.699 99.1074C107.149 99.1074 107.862 98.2725 108.033 97.584L108.048 97.54H106.891L106.876 97.5742C106.759 97.8184 106.383 98.1504 105.724 98.1504C104.898 98.1504 104.381 97.5938 104.366 96.6367H108.097V96.2363C108.097 94.625 107.159 93.5605 105.641 93.5605C104.122 93.5605 103.15 94.6592 103.15 96.3389V96.3438C103.15 98.043 104.112 99.1074 105.699 99.1074ZM105.655 94.5127C106.334 94.5127 106.827 94.9473 106.91 95.8213H104.376C104.469 94.9717 104.977 94.5127 105.655 94.5127ZM111.236 99.0879C111.988 99.0879 112.564 98.7461 112.857 98.165H112.94V99H114.161V91.5977H112.94V94.5127H112.857C112.579 93.9365 111.969 93.5752 111.236 93.5752C109.884 93.5752 109.049 94.6299 109.049 96.3291V96.3389C109.049 98.0283 109.898 99.0879 111.236 99.0879ZM111.617 98.0625C110.787 98.0625 110.284 97.4131 110.284 96.3389V96.3291C110.284 95.2549 110.792 94.6006 111.617 94.6006C112.442 94.6006 112.96 95.2598 112.96 96.3291V96.3389C112.96 97.4082 112.447 98.0625 111.617 98.0625Z" fill="#444444"/>
    <rect x="9.5" y="79.5" width="223" height="31" rx="7.5" stroke="#E5E5E5"/>
    <path d="M25.3408 136.232C27.3438 136.232 28.7725 134.845 28.7725 132.855V132.842C28.7725 130.935 27.4395 129.547 25.5869 129.547C24.6914 129.547 23.9189 129.909 23.4814 130.572H23.3721L23.707 127.236H28.2256V126.136H22.7363L22.2168 131.803H23.2832C23.4062 131.57 23.5635 131.379 23.7344 131.215C24.1582 130.812 24.7188 130.613 25.375 130.613C26.6533 130.613 27.5693 131.55 27.5693 132.862V132.876C27.5693 134.209 26.667 135.146 25.3545 135.146C24.1992 135.146 23.3447 134.394 23.2285 133.45L23.2217 133.396H22.0391L22.0459 133.471C22.1895 135.05 23.502 136.232 25.3408 136.232Z" fill="#181818"/>
    <path fill-rule="evenodd" clip-rule="evenodd" d="M59 125.462C55.9308 125.462 53.4615 127.931 53.4615 131C53.4615 134.07 55.9308 136.539 59 136.539C62.0692 136.539 64.5385 134.07 64.5385 131C64.5385 127.931 62.0692 125.462 59 125.462ZM62.0924 129.616L58.5617 133.193C58.4232 133.331 58.1924 133.331 58.054 133.193L56.1155 131.231C55.9771 131.093 55.9771 130.862 56.1155 130.724L56.6232 130.216C56.7617 130.078 56.9924 130.078 57.1309 130.216L58.1463 131.254C58.2386 131.347 58.4001 131.347 58.4924 131.254L61.0771 128.578C61.2155 128.439 61.4463 128.439 61.5847 128.578L62.0924 129.085C62.254 129.224 62.254 129.454 62.0924 129.616Z" fill="#2E844A"/>
    <path d="M72.8086 135.176C74.4346 135.176 75.6016 134.233 75.7871 132.822V132.788H74.5518L74.5469 132.812C74.3662 133.589 73.7021 134.087 72.8086 134.087C71.6074 134.087 70.8604 133.086 70.8604 131.479V131.47C70.8604 129.868 71.6074 128.867 72.8037 128.867C73.6924 128.867 74.3662 129.419 74.5469 130.254L74.5518 130.273H75.7871V130.234C75.6211 128.794 74.4053 127.778 72.8037 127.778C70.8066 127.778 69.5713 129.189 69.5713 131.475V131.484C69.5713 133.76 70.8115 135.176 72.8086 135.176ZM79.3711 135.107C80.9678 135.107 81.9395 134.062 81.9395 132.334V132.324C81.9395 130.605 80.9629 129.561 79.3711 129.561C77.7842 129.561 76.8027 130.61 76.8027 132.324V132.334C76.8027 134.062 77.7695 135.107 79.3711 135.107ZM79.3711 134.121C78.5264 134.121 78.043 133.462 78.043 132.339V132.329C78.043 131.206 78.5264 130.542 79.3711 130.542C80.2109 130.542 80.6943 131.206 80.6943 132.329V132.339C80.6943 133.462 80.2158 134.121 79.3711 134.121ZM83.1602 135H84.376V131.753C84.376 131.089 84.8154 130.581 85.416 130.581C86.0117 130.581 86.3779 130.947 86.3779 131.538V135H87.5938V131.665C87.5938 131.055 88.0039 130.581 88.6387 130.581C89.2881 130.581 89.6055 130.933 89.6055 131.626V135H90.8213V131.328C90.8213 130.22 90.1768 129.561 89.1025 129.561C88.3604 129.561 87.7451 129.941 87.4863 130.522H87.4033C87.1738 129.932 86.6465 129.561 85.9238 129.561C85.2256 129.561 84.6885 129.897 84.459 130.493H84.376V129.663H83.1602V135ZM92.2617 136.772H93.4775V134.15H93.5605C93.8389 134.727 94.4492 135.088 95.1816 135.088C96.5342 135.088 97.374 134.038 97.374 132.339V132.329C97.374 130.64 96.5195 129.575 95.1816 129.575C94.4346 129.575 93.8535 129.917 93.5605 130.498H93.4775V129.663H92.2617V136.772ZM94.8008 134.062C93.9756 134.062 93.4629 133.403 93.4629 132.334V132.324C93.4629 131.255 93.9756 130.601 94.8008 130.601C95.6309 130.601 96.1338 131.255 96.1338 132.329V132.339C96.1338 133.408 95.6309 134.062 94.8008 134.062ZM98.6484 135H99.8643V127.598H98.6484V135ZM103.688 135.107C105.138 135.107 105.851 134.272 106.021 133.584L106.036 133.54H104.879L104.864 133.574C104.747 133.818 104.371 134.15 103.712 134.15C102.887 134.15 102.369 133.594 102.354 132.637H106.085V132.236C106.085 130.625 105.147 129.561 103.629 129.561C102.11 129.561 101.139 130.659 101.139 132.339V132.344C101.139 134.043 102.101 135.107 103.688 135.107ZM103.644 130.513C104.322 130.513 104.815 130.947 104.898 131.821H102.364C102.457 130.972 102.965 130.513 103.644 130.513ZM109.4 135.024C109.635 135.024 109.859 135.005 110.035 134.971V134.033C109.889 134.048 109.796 134.053 109.625 134.053C109.117 134.053 108.907 133.828 108.907 133.296V130.605H110.035V129.663H108.907V128.354H107.672V129.663H106.842V130.605H107.672V133.584C107.672 134.614 108.175 135.024 109.4 135.024ZM113.482 135.107C114.933 135.107 115.646 134.272 115.816 133.584L115.831 133.54H114.674L114.659 133.574C114.542 133.818 114.166 134.15 113.507 134.15C112.682 134.15 112.164 133.594 112.149 132.637H115.88V132.236C115.88 130.625 114.942 129.561 113.424 129.561C111.905 129.561 110.934 130.659 110.934 132.339V132.344C110.934 134.043 111.896 135.107 113.482 135.107ZM113.438 130.513C114.117 130.513 114.61 130.947 114.693 131.821H112.159C112.252 130.972 112.76 130.513 113.438 130.513ZM119.02 135.088C119.771 135.088 120.348 134.746 120.641 134.165H120.724V135H121.944V127.598H120.724V130.513H120.641C120.362 129.937 119.752 129.575 119.02 129.575C117.667 129.575 116.832 130.63 116.832 132.329V132.339C116.832 134.028 117.682 135.088 119.02 135.088ZM119.4 134.062C118.57 134.062 118.067 133.413 118.067 132.339V132.329C118.067 131.255 118.575 130.601 119.4 130.601C120.226 130.601 120.743 131.26 120.743 132.329V132.339C120.743 133.408 120.23 134.062 119.4 134.062Z" fill="#444444"/>
    <rect x="9.5" y="115.5" width="223" height="31" rx="7.5" stroke="#E5E5E5"/>
    <path d="M25.5869 172.232C27.5762 172.232 29.0391 170.804 29.0391 168.835V168.821C29.0391 166.928 27.6582 165.52 25.8057 165.52C24.4727 165.52 23.543 166.237 23.1807 167.044H23.0508C23.0508 166.969 23.0508 166.887 23.0576 166.812C23.1328 164.754 23.8643 163.004 25.6553 163.004C26.6533 163.004 27.3438 163.517 27.6445 164.344L27.6719 164.419H28.9092L28.8887 164.33C28.5537 162.874 27.3232 161.903 25.6689 161.903C23.2764 161.903 21.875 163.872 21.875 167.235V167.249C21.875 170.961 23.7822 172.232 25.5869 172.232ZM23.3447 168.821V168.814C23.3447 167.529 24.3154 166.593 25.5938 166.593C26.8721 166.593 27.8018 167.536 27.8018 168.849V168.862C27.8018 170.141 26.8105 171.146 25.5732 171.146C24.3223 171.146 23.3447 170.12 23.3447 168.821Z" fill="#181818"/>
    <path fill-rule="evenodd" clip-rule="evenodd" d="M59 161.462C55.9539 161.462 53.4615 163.954 53.4615 167C53.4615 170.047 55.9539 172.539 59 172.539C62.0462 172.539 64.5385 170.047 64.5385 167C64.5385 163.954 62.0462 161.462 59 161.462ZM59 171.154C56.7154 171.154 54.8462 169.285 54.8462 167C54.8462 164.716 56.7154 162.847 59 162.847C61.2846 162.847 63.1539 164.716 63.1539 167C63.1539 169.285 61.2846 171.154 59 171.154ZM59.7846 167.047C59.7154 166.977 59.6923 166.885 59.6923 166.793V164.577C59.6923 164.393 59.5308 164.231 59.3461 164.231H58.6538C58.4692 164.231 58.3077 164.393 58.3077 164.577V167.37C58.3077 167.462 58.3538 167.554 58.4 167.624L60.1077 169.331C60.2461 169.47 60.4538 169.47 60.5923 169.331L61.0769 168.847C61.2154 168.708 61.2154 168.5 61.0769 168.362L59.7846 167.047Z" fill="#747474"/>
    <path d="M72.3154 171.176C74.0049 171.176 75.0645 170.316 75.0645 168.944V168.939C75.0645 167.875 74.4443 167.279 72.96 166.967L72.2031 166.806C71.3242 166.62 70.9678 166.308 70.9678 165.81V165.805C70.9678 165.204 71.5244 164.838 72.3057 164.838C73.1113 164.833 73.6338 165.224 73.7217 165.771L73.7314 165.829H74.9375L74.9326 165.766C74.8447 164.633 73.873 163.778 72.3105 163.778C70.7871 163.778 69.7031 164.628 69.7031 165.888V165.893C69.7031 166.942 70.3281 167.616 71.7686 167.919L72.5254 168.075C73.4336 168.271 73.7998 168.578 73.7998 169.086V169.091C73.7998 169.696 73.2041 170.116 72.3545 170.116C71.4609 170.116 70.8311 169.726 70.7725 169.135L70.7676 169.086H69.5469L69.5518 169.154C69.6396 170.37 70.6797 171.176 72.3154 171.176ZM78.6436 171.107C79.9961 171.107 80.7822 170.38 80.958 169.286L80.9678 169.247L79.8203 169.252L79.8105 169.271C79.6592 169.833 79.2734 170.121 78.6436 170.121C77.8184 170.121 77.3252 169.457 77.3252 168.324V168.314C77.3252 167.196 77.8135 166.542 78.6436 166.542C79.3076 166.542 79.7031 166.913 79.8154 167.431L79.8203 167.445H80.9678V167.426C80.8311 166.322 80.0107 165.561 78.6387 165.561C77.0322 165.561 76.0898 166.591 76.0898 168.314V168.324C76.0898 170.067 77.0371 171.107 78.6436 171.107ZM82.1738 171H83.3896V167.89C83.3896 167.089 83.8389 166.581 84.5615 166.581C85.2988 166.581 85.6357 167.001 85.6357 167.831V171H86.8516V167.548C86.8516 166.278 86.2021 165.561 85.0107 165.561C84.2393 165.561 83.7266 165.907 83.4727 166.479H83.3896V163.598H82.1738V171ZM90.5723 171.107C92.0225 171.107 92.7354 170.272 92.9062 169.584L92.9209 169.54H91.7637L91.749 169.574C91.6318 169.818 91.2559 170.15 90.5967 170.15C89.7715 170.15 89.2539 169.594 89.2393 168.637H92.9697V168.236C92.9697 166.625 92.0322 165.561 90.5137 165.561C88.9951 165.561 88.0234 166.659 88.0234 168.339V168.344C88.0234 170.043 88.9854 171.107 90.5723 171.107ZM90.5283 166.513C91.207 166.513 91.7002 166.947 91.7832 167.821H89.249C89.3418 166.972 89.8496 166.513 90.5283 166.513ZM96.1094 171.088C96.8613 171.088 97.4375 170.746 97.7305 170.165H97.8135V171H99.0342V163.598H97.8135V166.513H97.7305C97.4521 165.937 96.8418 165.575 96.1094 165.575C94.7568 165.575 93.9219 166.63 93.9219 168.329V168.339C93.9219 170.028 94.7715 171.088 96.1094 171.088ZM96.4902 170.062C95.6602 170.062 95.1572 169.413 95.1572 168.339V168.329C95.1572 167.255 95.665 166.601 96.4902 166.601C97.3154 166.601 97.833 167.26 97.833 168.329V168.339C97.833 169.408 97.3203 170.062 96.4902 170.062ZM102.33 171.107C103.102 171.107 103.644 170.761 103.893 170.189H103.976V171H105.191V165.663H103.976V168.773C103.976 169.574 103.556 170.082 102.77 170.082C102.037 170.082 101.729 169.662 101.729 168.837V165.663H100.514V169.115C100.514 170.385 101.129 171.107 102.33 171.107ZM106.725 171H107.94V163.598H106.725V171ZM111.764 171.107C113.214 171.107 113.927 170.272 114.098 169.584L114.112 169.54H112.955L112.94 169.574C112.823 169.818 112.447 170.15 111.788 170.15C110.963 170.15 110.445 169.594 110.431 168.637H114.161V168.236C114.161 166.625 113.224 165.561 111.705 165.561C110.187 165.561 109.215 166.659 109.215 168.339V168.344C109.215 170.043 110.177 171.107 111.764 171.107ZM111.72 166.513C112.398 166.513 112.892 166.947 112.975 167.821H110.44C110.533 166.972 111.041 166.513 111.72 166.513ZM117.301 171.088C118.053 171.088 118.629 170.746 118.922 170.165H119.005V171H120.226V163.598H119.005V166.513H118.922C118.644 165.937 118.033 165.575 117.301 165.575C115.948 165.575 115.113 166.63 115.113 168.329V168.339C115.113 170.028 115.963 171.088 117.301 171.088ZM117.682 170.062C116.852 170.062 116.349 169.413 116.349 168.339V168.329C116.349 167.255 116.856 166.601 117.682 166.601C118.507 166.601 119.024 167.26 119.024 168.329V168.339C119.024 169.408 118.512 170.062 117.682 170.062Z" fill="#444444"/>
    <rect x="9.5" y="151.5" width="223" height="31" rx="7.5" stroke="#E5E5E5"/>
    <path d="M26.6055 208H27.8086V205.956H29.21V204.855H27.8086V198.136H26.0244C24.6436 200.193 23.1328 202.6 21.7998 204.835V205.956H26.6055V208ZM23.0576 204.862V204.78C24.1309 202.969 25.4229 200.932 26.5303 199.277H26.6123V204.862H23.0576Z" fill="#181818"/>
    <path fill-rule="evenodd" clip-rule="evenodd" d="M63.7308 201.616H54.2692C54.0846 201.616 53.9231 201.777 53.9231 201.962V207.616C53.9231 208.123 54.3385 208.539 54.8462 208.539H63.1539C63.6616 208.539 64.0769 208.123 64.0769 207.616V201.962C64.0769 201.777 63.9154 201.616 63.7308 201.616ZM57.3847 206.692C57.3847 206.831 57.2924 206.923 57.154 206.923H56.2309C56.0924 206.923 56.0001 206.831 56.0001 206.692V205.769C56.0001 205.631 56.0924 205.539 56.2309 205.539H57.154C57.2924 205.539 57.3847 205.631 57.3847 205.769V206.692ZM57.3847 204.385C57.3847 204.523 57.2924 204.616 57.154 204.616H56.2309C56.0924 204.616 56.0001 204.523 56.0001 204.385V203.462C56.0001 203.323 56.0924 203.231 56.2309 203.231H57.154C57.2924 203.231 57.3847 203.323 57.3847 203.462V204.385ZM59.6924 206.692C59.6924 206.831 59.6 206.923 59.4616 206.923H58.5385C58.4 206.923 58.3077 206.831 58.3077 206.692V205.769C58.3077 205.631 58.4 205.539 58.5385 205.539H59.4616C59.6 205.539 59.6924 205.631 59.6924 205.769V206.692ZM59.6924 204.385C59.6924 204.523 59.6 204.616 59.4616 204.616H58.5385C58.4 204.616 58.3077 204.523 58.3077 204.385V203.462C58.3077 203.323 58.4 203.231 58.5385 203.231H59.4616C59.6 203.231 59.6924 203.323 59.6924 203.462V204.385ZM62 206.692C62 206.831 61.9077 206.923 61.7692 206.923H60.8461C60.7077 206.923 60.6154 206.831 60.6154 206.692V205.769C60.6154 205.631 60.7077 205.539 60.8461 205.539H61.7692C61.9077 205.539 62 205.631 62 205.769V206.692ZM62 204.385C62 204.523 61.9077 204.616 61.7692 204.616H60.8461C60.7077 204.616 60.6154 204.523 60.6154 204.385V203.462C60.6154 203.323 60.7077 203.231 60.8461 203.231H61.7692C61.9077 203.231 62 203.323 62 203.462V204.385ZM63.1539 198.616H62V198.154C62 197.785 61.7 197.462 61.3077 197.462C60.9385 197.462 60.6154 197.762 60.6154 198.154V198.616H57.3846V198.154C57.3846 197.785 57.0846 197.462 56.6923 197.462C56.3231 197.462 56 197.762 56 198.154V198.616H54.8462C54.3385 198.616 53.9231 199.031 53.9231 199.539V200.116C53.9231 200.3 54.0846 200.462 54.2692 200.462H63.7308C63.9154 200.462 64.0769 200.3 64.0769 200.116V199.539C64.0769 199.031 63.6616 198.616 63.1539 198.616Z" fill="#747474"/>
    <path d="M69.8691 207H71.1289V199.954H69.8691V207ZM72.7402 207H73.9561V203.89C73.9561 203.089 74.4053 202.581 75.1279 202.581C75.8652 202.581 76.2021 203.001 76.2021 203.831V207H77.418V203.548C77.418 202.278 76.7686 201.561 75.5771 201.561C74.8057 201.561 74.293 201.907 74.0391 202.479H73.9561V201.663H72.7402V207ZM81.6465 207H82.9062V204.671H84.459C85.8896 204.671 86.8564 203.724 86.8564 202.317V202.308C86.8564 200.896 85.8896 199.954 84.459 199.954H81.6465V207ZM84.1514 200.984C85.0547 200.984 85.582 201.468 85.582 202.312V202.322C85.582 203.167 85.0547 203.655 84.1514 203.655H82.9062V200.984H84.1514ZM88.1211 207H89.3369V203.899C89.3369 203.138 89.8691 202.654 90.6797 202.654C90.8896 202.654 91.0898 202.684 91.2852 202.723V201.634C91.168 201.6 90.9775 201.575 90.792 201.575C90.0889 201.575 89.6006 201.912 89.4199 202.483H89.3369V201.663H88.1211V207ZM94.4492 207.107C96.0459 207.107 97.0176 206.062 97.0176 204.334V204.324C97.0176 202.605 96.041 201.561 94.4492 201.561C92.8623 201.561 91.8809 202.61 91.8809 204.324V204.334C91.8809 206.062 92.8477 207.107 94.4492 207.107ZM94.4492 206.121C93.6045 206.121 93.1211 205.462 93.1211 204.339V204.329C93.1211 203.206 93.6045 202.542 94.4492 202.542C95.2891 202.542 95.7725 203.206 95.7725 204.329V204.339C95.7725 205.462 95.2939 206.121 94.4492 206.121ZM100.533 208.875C102.091 208.875 103.077 208.099 103.077 206.868V201.663H101.861V202.542H101.798C101.495 201.937 100.919 201.575 100.182 201.575C98.8047 201.575 97.9648 202.64 97.9648 204.183V204.192C97.9648 205.706 98.8047 206.751 100.157 206.751C100.895 206.751 101.476 206.438 101.783 205.867H101.866V206.888C101.866 207.571 101.383 207.957 100.553 207.957C99.874 207.957 99.4688 207.718 99.3857 207.376L99.3809 207.361H98.165L98.1602 207.376C98.2822 208.274 99.127 208.875 100.533 208.875ZM100.533 205.784C99.6885 205.784 99.21 205.135 99.21 204.192V204.183C99.21 203.24 99.6885 202.586 100.533 202.586C101.373 202.586 101.886 203.24 101.886 204.183V204.192C101.886 205.135 101.378 205.784 100.533 205.784ZM104.566 207H105.782V203.899C105.782 203.138 106.314 202.654 107.125 202.654C107.335 202.654 107.535 202.684 107.73 202.723V201.634C107.613 201.6 107.423 201.575 107.237 201.575C106.534 201.575 106.046 201.912 105.865 202.483H105.782V201.663H104.566V207ZM110.875 207.107C112.325 207.107 113.038 206.272 113.209 205.584L113.224 205.54H112.066L112.052 205.574C111.935 205.818 111.559 206.15 110.899 206.15C110.074 206.15 109.557 205.594 109.542 204.637H113.272V204.236C113.272 202.625 112.335 201.561 110.816 201.561C109.298 201.561 108.326 202.659 108.326 204.339V204.344C108.326 206.043 109.288 207.107 110.875 207.107ZM110.831 202.513C111.51 202.513 112.003 202.947 112.086 203.821H109.552C109.645 202.972 110.152 202.513 110.831 202.513ZM116.505 207.107C117.818 207.107 118.771 206.429 118.771 205.413V205.403C118.771 204.627 118.277 204.183 117.232 203.948L116.368 203.758C115.792 203.626 115.567 203.436 115.567 203.123V203.118C115.567 202.718 115.958 202.454 116.5 202.454C117.071 202.454 117.423 202.728 117.511 203.064L117.516 203.079H118.658V203.069C118.58 202.205 117.804 201.561 116.505 201.561C115.245 201.561 114.366 202.225 114.366 203.187V203.191C114.366 203.978 114.85 204.456 115.865 204.681L116.729 204.876C117.315 205.008 117.55 205.213 117.55 205.525V205.535C117.55 205.936 117.13 206.209 116.524 206.209C115.919 206.209 115.562 205.95 115.436 205.579L115.431 205.569H114.225V205.579C114.327 206.482 115.147 207.107 116.505 207.107ZM121.915 207.107C123.229 207.107 124.181 206.429 124.181 205.413V205.403C124.181 204.627 123.688 204.183 122.643 203.948L121.778 203.758C121.202 203.626 120.978 203.436 120.978 203.123V203.118C120.978 202.718 121.368 202.454 121.91 202.454C122.481 202.454 122.833 202.728 122.921 203.064L122.926 203.079H124.068V203.069C123.99 202.205 123.214 201.561 121.915 201.561C120.655 201.561 119.776 202.225 119.776 203.187V203.191C119.776 203.978 120.26 204.456 121.275 204.681L122.14 204.876C122.726 205.008 122.96 205.213 122.96 205.525V205.535C122.96 205.936 122.54 206.209 121.935 206.209C121.329 206.209 120.973 205.95 120.846 205.579L120.841 205.569H119.635V205.579C119.737 206.482 120.558 207.107 121.915 207.107Z" fill="#444444"/>
    <rect x="9.5" y="187.5" width="223" height="31" rx="7.5" stroke="#E5E5E5"/>
    </g>
    <rect x="0.5" y="0.5" width="241" height="227" rx="12.5" stroke="#C9C9C9"/>
    <defs>
    <clipPath id="clip0_3608_86109">
    <rect x="1" y="1" width="240" height="226" rx="12" fill="white"/>
    </clipPath>
    </defs>
</svg>