<svg width="242" height="152" viewBox="0 0 242 152" fill="none" xmlns="http://www.w3.org/2000/svg" id="side_example">
    <g clip-path="url(#clip0_3608_86103)">
    <rect x="1" y="1" width="240" height="150" rx="12" fill="white"/>
    <path d="M12.8496 22.1992C14.7363 22.1992 15.9727 21.2148 15.9727 19.6328V19.627C15.9727 18.4082 15.2754 17.6992 13.5117 17.3066L12.5742 17.0957C11.4258 16.8438 10.9629 16.3867 10.9629 15.7129V15.707C10.9629 14.8223 11.7773 14.3242 12.832 14.3184C13.9336 14.3125 14.6367 14.8633 14.7539 15.6074L14.7656 15.6836H15.8203L15.8145 15.6016C15.7266 14.3418 14.5488 13.3457 12.8613 13.3457C11.1152 13.3457 9.89062 14.3359 9.88477 15.7363V15.7422C9.88477 16.9668 10.6172 17.7461 12.3105 18.1211L13.248 18.3262C14.4082 18.584 14.8945 19.0645 14.8945 19.7676V19.7734C14.8945 20.6348 14.0566 21.2266 12.9082 21.2266C11.6895 21.2266 10.8105 20.6934 10.7344 19.8496L10.7285 19.7852H9.67383L9.67969 19.8496C9.80273 21.2266 10.998 22.1992 12.8496 22.1992ZM20.1797 22.1113C21.668 22.1113 22.5703 21.2676 22.7871 20.4121L22.7988 20.3652H21.7793L21.7559 20.418C21.5859 20.7988 21.0586 21.2031 20.2031 21.2031C19.0781 21.2031 18.3574 20.4414 18.3281 19.1348H22.875V18.7363C22.875 16.8496 21.832 15.5723 20.1152 15.5723C18.3984 15.5723 17.2852 16.9082 17.2852 18.8594V18.8652C17.2852 20.8457 18.375 22.1113 20.1797 22.1113ZM20.1094 16.4805C21.041 16.4805 21.7324 17.0723 21.8379 18.3203H18.3457C18.457 17.1191 19.1719 16.4805 20.1094 16.4805ZM24.457 22H25.4766V18.0859C25.4766 17.1602 26.168 16.5449 27.1406 16.5449C27.3633 16.5449 27.5566 16.5684 27.7676 16.6035V15.6133C27.668 15.5957 27.4512 15.5723 27.2578 15.5723C26.4023 15.5723 25.8105 15.959 25.5703 16.6211H25.4766V15.6836H24.457V22ZM30.8145 22H31.8457L34.1836 15.6836H33.1055L31.377 20.8867H31.2832L29.5547 15.6836H28.4766L30.8145 22ZM36.0703 14.4648C36.457 14.4648 36.7734 14.1484 36.7734 13.7617C36.7734 13.375 36.457 13.0586 36.0703 13.0586C35.6836 13.0586 35.3672 13.375 35.3672 13.7617C35.3672 14.1484 35.6836 14.4648 36.0703 14.4648ZM35.5547 22H36.5742V15.6836H35.5547V22ZM41.0801 22.1113C42.5977 22.1113 43.4473 21.2969 43.7051 20.1543L43.7168 20.0898L42.709 20.0957L42.6973 20.1309C42.4629 20.834 41.9238 21.209 41.0742 21.209C39.9492 21.209 39.2227 20.2773 39.2227 18.8242V18.8125C39.2227 17.3887 39.9375 16.4746 41.0742 16.4746C41.9824 16.4746 42.5449 16.9785 42.7031 17.5996L42.709 17.6172H43.7227L43.7168 17.582C43.5293 16.457 42.6094 15.5723 41.0742 15.5723C39.3047 15.5723 38.1797 16.8496 38.1797 18.8125V18.8242C38.1797 20.8281 39.3105 22.1113 41.0801 22.1113ZM47.7891 22.1113C49.2773 22.1113 50.1797 21.2676 50.3965 20.4121L50.4082 20.3652H49.3887L49.3652 20.418C49.1953 20.7988 48.668 21.2031 47.8125 21.2031C46.6875 21.2031 45.9668 20.4414 45.9375 19.1348H50.4844V18.7363C50.4844 16.8496 49.4414 15.5723 47.7246 15.5723C46.0078 15.5723 44.8945 16.9082 44.8945 18.8594V18.8652C44.8945 20.8457 45.9844 22.1113 47.7891 22.1113ZM47.7188 16.4805C48.6504 16.4805 49.3418 17.0723 49.4473 18.3203H45.9551C46.0664 17.1191 46.7812 16.4805 47.7188 16.4805ZM54.8965 22H56.0039L56.8535 19.5801H60.2168L61.0664 22H62.1738L59.0566 13.5449H58.0137L54.8965 22ZM58.4883 14.9102H58.582L59.9062 18.6836H57.1641L58.4883 14.9102ZM63.5273 24.1094H64.5469V21.0039H64.6406C64.9863 21.6777 65.7422 22.1113 66.6094 22.1113C68.2148 22.1113 69.2578 20.8281 69.2578 18.8477V18.8359C69.2578 16.8672 68.209 15.5723 66.6094 15.5723C65.7305 15.5723 65.0273 15.9883 64.6406 16.6914H64.5469V15.6836H63.5273V24.1094ZM66.375 21.209C65.2266 21.209 64.5234 20.3066 64.5234 18.8477V18.8359C64.5234 17.377 65.2266 16.4746 66.375 16.4746C67.5293 16.4746 68.2148 17.3652 68.2148 18.8359V18.8477C68.2148 20.3184 67.5293 21.209 66.375 21.209ZM70.8516 24.1094H71.8711V21.0039H71.9648C72.3105 21.6777 73.0664 22.1113 73.9336 22.1113C75.5391 22.1113 76.582 20.8281 76.582 18.8477V18.8359C76.582 16.8672 75.5332 15.5723 73.9336 15.5723C73.0547 15.5723 72.3516 15.9883 71.9648 16.6914H71.8711V15.6836H70.8516V24.1094ZM73.6992 21.209C72.5508 21.209 71.8477 20.3066 71.8477 18.8477V18.8359C71.8477 17.377 72.5508 16.4746 73.6992 16.4746C74.8535 16.4746 75.5391 17.3652 75.5391 18.8359V18.8477C75.5391 20.3184 74.8535 21.209 73.6992 21.209ZM80.7715 22.1113C82.5703 22.1113 83.6836 20.8691 83.6836 18.8477V18.8359C83.6836 16.8086 82.5703 15.5723 80.7715 15.5723C78.9727 15.5723 77.8594 16.8086 77.8594 18.8359V18.8477C77.8594 20.8691 78.9727 22.1113 80.7715 22.1113ZM80.7715 21.209C79.5762 21.209 78.9023 20.3359 78.9023 18.8477V18.8359C78.9023 17.3418 79.5762 16.4746 80.7715 16.4746C81.9668 16.4746 82.6406 17.3418 82.6406 18.8359V18.8477C82.6406 20.3359 81.9668 21.209 80.7715 21.209ZM85.8047 14.4648C86.1914 14.4648 86.5078 14.1484 86.5078 13.7617C86.5078 13.375 86.1914 13.0586 85.8047 13.0586C85.418 13.0586 85.1016 13.375 85.1016 13.7617C85.1016 14.1484 85.418 14.4648 85.8047 14.4648ZM85.2891 22H86.3086V15.6836H85.2891V22ZM88.2305 22H89.25V18.2617C89.25 17.1543 89.8887 16.4746 90.8965 16.4746C91.9043 16.4746 92.373 17.0195 92.373 18.1562V22H93.3926V17.9102C93.3926 16.4102 92.6016 15.5723 91.1836 15.5723C90.252 15.5723 89.6602 15.9648 89.3438 16.6328H89.25V15.6836H88.2305V22ZM97.4824 22.0469C97.6816 22.0469 97.875 22.0234 98.0742 21.9883V21.1211C97.8867 21.1387 97.7871 21.1445 97.6055 21.1445C96.9492 21.1445 96.6914 20.8457 96.6914 20.1016V16.5273H98.0742V15.6836H96.6914V14.0488H95.6367V15.6836H94.6406V16.5273H95.6367V20.3594C95.6367 21.5664 96.1816 22.0469 97.4824 22.0469ZM99.5977 22H100.617V18.0859C100.617 17.1953 101.244 16.4746 102.07 16.4746C102.867 16.4746 103.383 16.9609 103.383 17.7109V22H104.402V17.9395C104.402 17.1367 104.982 16.4746 105.861 16.4746C106.752 16.4746 107.18 16.9375 107.18 17.8691V22H108.199V17.6348C108.199 16.3105 107.479 15.5723 106.189 15.5723C105.316 15.5723 104.596 16.0117 104.256 16.6797H104.162C103.869 16.0234 103.271 15.5723 102.416 15.5723C101.59 15.5723 100.992 15.9648 100.711 16.6445H100.617V15.6836H99.5977V22ZM112.617 22.1113C114.105 22.1113 115.008 21.2676 115.225 20.4121L115.236 20.3652H114.217L114.193 20.418C114.023 20.7988 113.496 21.2031 112.641 21.2031C111.516 21.2031 110.795 20.4414 110.766 19.1348H115.312V18.7363C115.312 16.8496 114.27 15.5723 112.553 15.5723C110.836 15.5723 109.723 16.9082 109.723 18.8594V18.8652C109.723 20.8457 110.812 22.1113 112.617 22.1113ZM112.547 16.4805C113.479 16.4805 114.17 17.0723 114.275 18.3203H110.783C110.895 17.1191 111.609 16.4805 112.547 16.4805ZM116.895 22H117.914V18.2617C117.914 17.1543 118.553 16.4746 119.561 16.4746C120.568 16.4746 121.037 17.0195 121.037 18.1562V22H122.057V17.9102C122.057 16.4102 121.266 15.5723 119.848 15.5723C118.916 15.5723 118.324 15.9648 118.008 16.6328H117.914V15.6836H116.895V22ZM126.146 22.0469C126.346 22.0469 126.539 22.0234 126.738 21.9883V21.1211C126.551 21.1387 126.451 21.1445 126.27 21.1445C125.613 21.1445 125.355 20.8457 125.355 20.1016V16.5273H126.738V15.6836H125.355V14.0488H124.301V15.6836H123.305V16.5273H124.301V20.3594C124.301 21.5664 124.846 22.0469 126.146 22.0469ZM130.312 22.1113C131.748 22.1113 132.844 21.332 132.844 20.207V20.1953C132.844 19.293 132.27 18.7773 131.08 18.4902L130.107 18.2559C129.363 18.0742 129.047 17.8047 129.047 17.377V17.3652C129.047 16.8086 129.598 16.4219 130.348 16.4219C131.109 16.4219 131.602 16.7676 131.736 17.2656H132.738C132.598 16.2344 131.678 15.5723 130.354 15.5723C129.012 15.5723 128.004 16.3633 128.004 17.4121V17.418C128.004 18.3262 128.537 18.8418 129.721 19.123L130.699 19.3574C131.479 19.5449 131.801 19.8438 131.801 20.2715V20.2832C131.801 20.8574 131.197 21.2617 130.348 21.2617C129.539 21.2617 129.035 20.916 128.865 20.3887H127.822C127.939 21.4316 128.906 22.1113 130.312 22.1113ZM139.934 24.1094H140.789C139.939 23.0254 139.307 20.6934 139.307 18.6426C139.307 16.6094 139.939 14.2598 140.789 13.1758H139.934C138.785 14.6934 138.27 16.4688 138.27 18.6426C138.27 20.8223 138.791 22.5918 139.934 24.1094ZM144.445 22H145.5V13.5449H144.451L142.201 15.1621V16.2754L144.352 14.7168H144.445V22ZM150.832 22.1406C152.625 22.1406 153.902 21.1328 153.902 19.7148V19.7031C153.902 18.6602 153.17 17.793 152.086 17.541V17.5176C153.012 17.2305 153.598 16.5273 153.598 15.6367V15.625C153.598 14.3477 152.432 13.4043 150.832 13.4043C149.232 13.4043 148.066 14.3477 148.066 15.625V15.6367C148.066 16.5273 148.652 17.2305 149.578 17.5176V17.541C148.494 17.793 147.762 18.6602 147.762 19.7031V19.7148C147.762 21.1328 149.039 22.1406 150.832 22.1406ZM150.832 17.125C149.812 17.125 149.115 16.5449 149.115 15.7246V15.7129C149.115 14.8926 149.812 14.3125 150.832 14.3125C151.852 14.3125 152.549 14.8926 152.549 15.7129V15.7246C152.549 16.5449 151.852 17.125 150.832 17.125ZM150.832 21.2207C149.666 21.2207 148.834 20.5645 148.834 19.6504V19.6387C148.834 18.7129 149.66 18.0508 150.832 18.0508C152.004 18.0508 152.83 18.7129 152.83 19.6387V19.6504C152.83 20.5645 151.998 21.2207 150.832 21.2207ZM156.164 24.1094C157.307 22.5918 157.828 20.8223 157.828 18.6426C157.828 16.4688 157.312 14.6934 156.164 13.1758H155.309C156.158 14.2598 156.791 16.6094 156.791 18.6426C156.791 20.6934 156.158 23.0254 155.309 24.1094H156.164Z" fill="#444444"/>
    <path d="M241 34H1V36H241V34Z" fill="#E5E5E5" mask="url(#path-3-inside-1_3608_86103)"/>
    <path d="M18.5137 63H19.7441V53.1357H18.5205L15.8955 55.0225V56.3213L18.4043 54.5029H18.5137V63Z" fill="#181818"/>
    <g clip-path="url(#clip1_3608_86103)">
    <path fill-rule="evenodd" clip-rule="evenodd" d="M21 71.4619C17.9539 71.4619 15.4615 73.9542 15.4615 77.0004C15.4615 80.0465 17.9539 82.5388 21 82.5388C24.0462 82.5388 26.5385 80.0465 26.5385 77.0004C26.5385 73.9542 24.0462 71.4619 21 71.4619ZM16.8462 77.0004C16.8462 74.7157 18.7154 72.8465 21 72.8465C21.9 72.8465 22.7308 73.1234 23.4 73.608L17.6077 79.4004C17.1231 78.7311 16.8462 77.9004 16.8462 77.0004ZM20.9999 81.1542C20.0999 81.1542 19.2691 80.8773 18.5999 80.3927L24.3922 74.6004C24.8768 75.2696 25.1538 76.1004 25.1538 77.0004C25.1538 79.285 23.2845 81.1542 20.9999 81.1542Z" fill="#BA0517"/>
    <path d="M34.8086 81.1758C36.4346 81.1758 37.6016 80.2334 37.7871 78.8223V78.7881H36.5518L36.5469 78.8125C36.3662 79.5889 35.7021 80.0869 34.8086 80.0869C33.6074 80.0869 32.8604 79.0859 32.8604 77.4795V77.4697C32.8604 75.8682 33.6074 74.8672 34.8037 74.8672C35.6924 74.8672 36.3662 75.4189 36.5469 76.2539L36.5518 76.2734H37.7871V76.2344C37.6211 74.7939 36.4053 73.7783 34.8037 73.7783C32.8066 73.7783 31.5713 75.1895 31.5713 77.4746V77.4844C31.5713 79.7598 32.8115 81.1758 34.8086 81.1758ZM40.5215 81.0879C41.2246 81.0879 41.791 80.7852 42.084 80.2676H42.167V81H43.3682V77.3525C43.3682 76.2246 42.5967 75.5605 41.2246 75.5605C39.9551 75.5605 39.0957 76.1562 38.9785 77.0547L38.9736 77.0986H40.1211L40.126 77.0791C40.248 76.7275 40.6094 76.5273 41.166 76.5273C41.8203 76.5273 42.167 76.8203 42.167 77.3525V77.8115L40.7949 77.8945C39.4961 77.9727 38.7686 78.5293 38.7686 79.4814V79.4912C38.7686 80.4629 39.5059 81.0879 40.5215 81.0879ZM39.9697 79.4326V79.4229C39.9697 78.9834 40.2871 78.7344 40.9658 78.6904L42.167 78.6123V79.042C42.167 79.6768 41.625 80.1553 40.8926 80.1553C40.3555 80.1553 39.9697 79.8867 39.9697 79.4326ZM44.8281 81H46.0439V77.8896C46.0439 77.0889 46.4932 76.5811 47.2158 76.5811C47.9531 76.5811 48.29 77.001 48.29 77.8311V81H49.5059V77.5479C49.5059 76.2783 48.8564 75.5605 47.665 75.5605C46.8936 75.5605 46.3809 75.9072 46.127 76.4785H46.0439V75.6631H44.8281V81ZM50.9414 81H52.1572V77.8896C52.1572 77.0889 52.6064 76.5811 53.3291 76.5811C54.0664 76.5811 54.4033 77.001 54.4033 77.8311V81H55.6191V77.5479C55.6191 76.2783 54.9697 75.5605 53.7783 75.5605C53.0068 75.5605 52.4941 75.9072 52.2402 76.4785H52.1572V75.6631H50.9414V81ZM59.3594 81.1074C60.9561 81.1074 61.9277 80.0625 61.9277 78.334V78.3242C61.9277 76.6055 60.9512 75.5605 59.3594 75.5605C57.7725 75.5605 56.791 76.6104 56.791 78.3242V78.334C56.791 80.0625 57.7578 81.1074 59.3594 81.1074ZM59.3594 80.1211C58.5146 80.1211 58.0312 79.4619 58.0312 78.3389V78.3291C58.0312 77.2061 58.5146 76.542 59.3594 76.542C60.1992 76.542 60.6826 77.2061 60.6826 78.3291V78.3389C60.6826 79.4619 60.2041 80.1211 59.3594 80.1211ZM65.248 81.0244C65.4824 81.0244 65.707 81.0049 65.8828 80.9707V80.0332C65.7363 80.0479 65.6436 80.0527 65.4727 80.0527C64.9648 80.0527 64.7549 79.8281 64.7549 79.2959V76.6055H65.8828V75.6631H64.7549V74.3545H63.5195V75.6631H62.6895V76.6055H63.5195V79.584C63.5195 80.6143 64.0225 81.0244 65.248 81.0244ZM70.6631 81.0977C71.1123 81.0977 71.4395 80.7607 71.4395 80.3262C71.4395 79.8916 71.1123 79.5547 70.6631 79.5547C70.2188 79.5547 69.8867 79.8916 69.8867 80.3262C69.8867 80.7607 70.2188 81.0977 70.6631 81.0977ZM73.9541 81.0977C74.4033 81.0977 74.7305 80.7607 74.7305 80.3262C74.7305 79.8916 74.4033 79.5547 73.9541 79.5547C73.5098 79.5547 73.1777 79.8916 73.1777 80.3262C73.1777 80.7607 73.5098 81.0977 73.9541 81.0977ZM77.2451 81.0977C77.6943 81.0977 78.0215 80.7607 78.0215 80.3262C78.0215 79.8916 77.6943 79.5547 77.2451 79.5547C76.8008 79.5547 76.4688 79.8916 76.4688 80.3262C76.4688 80.7607 76.8008 81.0977 77.2451 81.0977Z" fill="#444444"/>
    </g>
    <rect x="9.5" y="43.5" width="71" height="47" rx="7.5" stroke="#E5E5E5"/>
    <path d="M92.1006 63H98.4854V61.8926H93.8096V61.7832L96.0518 59.4658C97.8359 57.627 98.3213 56.8066 98.3213 55.6787V55.665C98.3213 54.0723 97.002 52.9033 95.2793 52.9033C93.3926 52.9033 92.0391 54.1611 92.0322 55.9111L92.0459 55.918L93.2217 55.9248L93.2285 55.9111C93.2285 54.749 94.0146 53.9766 95.1973 53.9766C96.3594 53.9766 97.0635 54.7559 97.0635 55.7949V55.8086C97.0635 56.6699 96.6943 57.1826 95.4365 58.543L92.1006 62.1523V63Z" fill="#181818"/>
    <g clip-path="url(#clip2_3608_86103)">
    <path fill-rule="evenodd" clip-rule="evenodd" d="M102.862 80.8075L97.5769 72.269C97.3 71.8075 96.7 71.8075 96.4231 72.269L91.1385 80.8075C90.8154 81.3382 91.1385 82.0767 91.7154 82.0767H102.285C102.862 82.0767 103.208 81.3382 102.862 80.8075ZM97 80.2303C96.6077 80.2303 96.3077 79.9303 96.3077 79.538C96.3077 79.1457 96.6077 78.8457 97 78.8457C97.3923 78.8457 97.6923 79.1457 97.6923 79.538C97.6923 79.9303 97.3923 80.2303 97 80.2303ZM97.6923 78.1536C97.6923 78.2921 97.6 78.3844 97.4615 78.3844H96.5384C96.4 78.3844 96.3077 78.2921 96.3077 78.1536V75.1536C96.3077 75.0152 96.4 74.9229 96.5384 74.9229H97.4615C97.6 74.9229 97.6923 75.0152 97.6923 75.1536V78.1536Z" fill="#FE9339"/>
    <path d="M110.809 81.1758C112.435 81.1758 113.602 80.2334 113.787 78.8223V78.7881H112.552L112.547 78.8125C112.366 79.5889 111.702 80.0869 110.809 80.0869C109.607 80.0869 108.86 79.0859 108.86 77.4795V77.4697C108.86 75.8682 109.607 74.8672 110.804 74.8672C111.692 74.8672 112.366 75.4189 112.547 76.2539L112.552 76.2734H113.787V76.2344C113.621 74.7939 112.405 73.7783 110.804 73.7783C108.807 73.7783 107.571 75.1895 107.571 77.4746V77.4844C107.571 79.7598 108.812 81.1758 110.809 81.1758ZM116.521 81.0879C117.225 81.0879 117.791 80.7852 118.084 80.2676H118.167V81H119.368V77.3525C119.368 76.2246 118.597 75.5605 117.225 75.5605C115.955 75.5605 115.096 76.1562 114.979 77.0547L114.974 77.0986H116.121L116.126 77.0791C116.248 76.7275 116.609 76.5273 117.166 76.5273C117.82 76.5273 118.167 76.8203 118.167 77.3525V77.8115L116.795 77.8945C115.496 77.9727 114.769 78.5293 114.769 79.4814V79.4912C114.769 80.4629 115.506 81.0879 116.521 81.0879ZM115.97 79.4326V79.4229C115.97 78.9834 116.287 78.7344 116.966 78.6904L118.167 78.6123V79.042C118.167 79.6768 117.625 80.1553 116.893 80.1553C116.355 80.1553 115.97 79.8867 115.97 79.4326ZM120.828 81H122.044V77.8896C122.044 77.0889 122.493 76.5811 123.216 76.5811C123.953 76.5811 124.29 77.001 124.29 77.8311V81H125.506V77.5479C125.506 76.2783 124.856 75.5605 123.665 75.5605C122.894 75.5605 122.381 75.9072 122.127 76.4785H122.044V75.6631H120.828V81ZM129.231 81.1074C130.584 81.1074 131.37 80.3799 131.546 79.2861L131.556 79.2471L130.408 79.252L130.398 79.2715C130.247 79.833 129.861 80.1211 129.231 80.1211C128.406 80.1211 127.913 79.457 127.913 78.3242V78.3145C127.913 77.1963 128.401 76.542 129.231 76.542C129.896 76.542 130.291 76.9131 130.403 77.4307L130.408 77.4453H131.556V77.4258C131.419 76.3223 130.599 75.5605 129.227 75.5605C127.62 75.5605 126.678 76.5908 126.678 78.3145V78.3242C126.678 80.0674 127.625 81.1074 129.231 81.1074ZM134.998 81.1074C136.448 81.1074 137.161 80.2725 137.332 79.584L137.347 79.54H136.189L136.175 79.5742C136.058 79.8184 135.682 80.1504 135.022 80.1504C134.197 80.1504 133.68 79.5938 133.665 78.6367H137.396V78.2363C137.396 76.625 136.458 75.5605 134.939 75.5605C133.421 75.5605 132.449 76.6592 132.449 78.3389V78.3438C132.449 80.043 133.411 81.1074 134.998 81.1074ZM134.954 76.5127C135.633 76.5127 136.126 76.9473 136.209 77.8213H133.675C133.768 76.9717 134.275 76.5127 134.954 76.5127ZM138.66 81H139.876V73.5977H138.66V81ZM143.699 81.1074C145.149 81.1074 145.862 80.2725 146.033 79.584L146.048 79.54H144.891L144.876 79.5742C144.759 79.8184 144.383 80.1504 143.724 80.1504C142.898 80.1504 142.381 79.5938 142.366 78.6367H146.097V78.2363C146.097 76.625 145.159 75.5605 143.641 75.5605C142.122 75.5605 141.15 76.6592 141.15 78.3389V78.3438C141.15 80.043 142.112 81.1074 143.699 81.1074ZM143.655 76.5127C144.334 76.5127 144.827 76.9473 144.91 77.8213H142.376C142.469 76.9717 142.977 76.5127 143.655 76.5127ZM149.236 81.0879C149.988 81.0879 150.564 80.7461 150.857 80.165H150.94V81H152.161V73.5977H150.94V76.5127H150.857C150.579 75.9365 149.969 75.5752 149.236 75.5752C147.884 75.5752 147.049 76.6299 147.049 78.3291V78.3389C147.049 80.0283 147.898 81.0879 149.236 81.0879ZM149.617 80.0625C148.787 80.0625 148.284 79.4131 148.284 78.3389V78.3291C148.284 77.2549 148.792 76.6006 149.617 76.6006C150.442 76.6006 150.96 77.2598 150.96 78.3291V78.3389C150.96 79.4082 150.447 80.0625 149.617 80.0625Z" fill="#444444"/>
    </g>
    <rect x="85.5" y="43.5" width="71" height="47" rx="7.5" stroke="#E5E5E5"/>
    <path d="M171.341 63.2324C173.344 63.2324 174.772 61.8447 174.772 59.8555V59.8418C174.772 57.9346 173.439 56.5469 171.587 56.5469C170.691 56.5469 169.919 56.9092 169.481 57.5723H169.372L169.707 54.2363H174.226V53.1357H168.736L168.217 58.8027H169.283C169.406 58.5703 169.563 58.3789 169.734 58.2148C170.158 57.8115 170.719 57.6133 171.375 57.6133C172.653 57.6133 173.569 58.5498 173.569 59.8623V59.876C173.569 61.209 172.667 62.1455 171.354 62.1455C170.199 62.1455 169.345 61.3936 169.229 60.4502L169.222 60.3955H168.039L168.046 60.4707C168.189 62.0498 169.502 63.2324 171.341 63.2324Z" fill="#181818"/>
    <g clip-path="url(#clip3_3608_86103)">
    <path fill-rule="evenodd" clip-rule="evenodd" d="M173 71.4619C169.931 71.4619 167.462 73.9311 167.462 77.0004C167.462 80.0696 169.931 82.5388 173 82.5388C176.069 82.5388 178.538 80.0696 178.538 77.0004C178.538 73.9311 176.069 71.4619 173 71.4619ZM176.092 75.616L172.562 79.1929C172.423 79.3314 172.192 79.3314 172.054 79.1929L170.116 77.2314C169.977 77.0929 169.977 76.8621 170.116 76.7237L170.623 76.216C170.762 76.0775 170.992 76.0775 171.131 76.216L172.146 77.2544C172.239 77.3468 172.4 77.3468 172.492 77.2544L175.077 74.5775C175.216 74.4391 175.446 74.4391 175.585 74.5775L176.092 75.0852C176.254 75.2237 176.254 75.4544 176.092 75.616Z" fill="#2E844A"/>
    <path d="M186.809 81.1758C188.435 81.1758 189.602 80.2334 189.787 78.8223V78.7881H188.552L188.547 78.8125C188.366 79.5889 187.702 80.0869 186.809 80.0869C185.607 80.0869 184.86 79.0859 184.86 77.4795V77.4697C184.86 75.8682 185.607 74.8672 186.804 74.8672C187.692 74.8672 188.366 75.4189 188.547 76.2539L188.552 76.2734H189.787V76.2344C189.621 74.7939 188.405 73.7783 186.804 73.7783C184.807 73.7783 183.571 75.1895 183.571 77.4746V77.4844C183.571 79.7598 184.812 81.1758 186.809 81.1758ZM193.371 81.1074C194.968 81.1074 195.939 80.0625 195.939 78.334V78.3242C195.939 76.6055 194.963 75.5605 193.371 75.5605C191.784 75.5605 190.803 76.6104 190.803 78.3242V78.334C190.803 80.0625 191.77 81.1074 193.371 81.1074ZM193.371 80.1211C192.526 80.1211 192.043 79.4619 192.043 78.3389V78.3291C192.043 77.2061 192.526 76.542 193.371 76.542C194.211 76.542 194.694 77.2061 194.694 78.3291V78.3389C194.694 79.4619 194.216 80.1211 193.371 80.1211ZM197.16 81H198.376V77.7529C198.376 77.0889 198.815 76.5811 199.416 76.5811C200.012 76.5811 200.378 76.9473 200.378 77.5381V81H201.594V77.665C201.594 77.0547 202.004 76.5811 202.639 76.5811C203.288 76.5811 203.605 76.9326 203.605 77.626V81H204.821V77.3281C204.821 76.2197 204.177 75.5605 203.103 75.5605C202.36 75.5605 201.745 75.9414 201.486 76.5225H201.403C201.174 75.9316 200.646 75.5605 199.924 75.5605C199.226 75.5605 198.688 75.8975 198.459 76.4932H198.376V75.6631H197.16V81ZM206.262 82.7725H207.478V80.1504H207.561C207.839 80.7266 208.449 81.0879 209.182 81.0879C210.534 81.0879 211.374 80.0381 211.374 78.3389V78.3291C211.374 76.6396 210.52 75.5752 209.182 75.5752C208.435 75.5752 207.854 75.917 207.561 76.498H207.478V75.6631H206.262V82.7725ZM208.801 80.0625C207.976 80.0625 207.463 79.4033 207.463 78.334V78.3242C207.463 77.2549 207.976 76.6006 208.801 76.6006C209.631 76.6006 210.134 77.2549 210.134 78.3291V78.3389C210.134 79.4082 209.631 80.0625 208.801 80.0625ZM212.648 81H213.864V73.5977H212.648V81ZM217.688 81.1074C219.138 81.1074 219.851 80.2725 220.021 79.584L220.036 79.54H218.879L218.864 79.5742C218.747 79.8184 218.371 80.1504 217.712 80.1504C216.887 80.1504 216.369 79.5938 216.354 78.6367H220.085V78.2363C220.085 76.625 219.147 75.5605 217.629 75.5605C216.11 75.5605 215.139 76.6592 215.139 78.3389V78.3438C215.139 80.043 216.101 81.1074 217.688 81.1074ZM217.644 76.5127C218.322 76.5127 218.815 76.9473 218.898 77.8213H216.364C216.457 76.9717 216.965 76.5127 217.644 76.5127ZM222.204 81.0977C222.653 81.0977 222.98 80.7607 222.98 80.3262C222.98 79.8916 222.653 79.5547 222.204 79.5547C221.76 79.5547 221.428 79.8916 221.428 80.3262C221.428 80.7607 221.76 81.0977 222.204 81.0977ZM225.495 81.0977C225.944 81.0977 226.271 80.7607 226.271 80.3262C226.271 79.8916 225.944 79.5547 225.495 79.5547C225.051 79.5547 224.719 79.8916 224.719 80.3262C224.719 80.7607 225.051 81.0977 225.495 81.0977ZM228.786 81.0977C229.235 81.0977 229.562 80.7607 229.562 80.3262C229.562 79.8916 229.235 79.5547 228.786 79.5547C228.342 79.5547 228.01 79.8916 228.01 80.3262C228.01 80.7607 228.342 81.0977 228.786 81.0977Z" fill="#444444"/>
    </g>
    <rect x="161.5" y="43.5" width="71" height="47" rx="7.5" stroke="#E5E5E5"/>
    <path d="M19.5869 115.232C21.5762 115.232 23.0391 113.804 23.0391 111.835V111.821C23.0391 109.928 21.6582 108.52 19.8057 108.52C18.4727 108.52 17.543 109.237 17.1807 110.044H17.0508C17.0508 109.969 17.0508 109.887 17.0576 109.812C17.1328 107.754 17.8643 106.004 19.6553 106.004C20.6533 106.004 21.3438 106.517 21.6445 107.344L21.6719 107.419H22.9092L22.8887 107.33C22.5537 105.874 21.3232 104.903 19.6689 104.903C17.2764 104.903 15.875 106.872 15.875 110.235V110.249C15.875 113.961 17.7822 115.232 19.5869 115.232ZM17.3447 111.821V111.814C17.3447 110.529 18.3154 109.593 19.5938 109.593C20.8721 109.593 21.8018 110.536 21.8018 111.849V111.862C21.8018 113.141 20.8105 114.146 19.5732 114.146C18.3223 114.146 17.3447 113.12 17.3447 111.821Z" fill="#181818"/>
    <g clip-path="url(#clip4_3608_86103)">
    <path fill-rule="evenodd" clip-rule="evenodd" d="M21 123.462C17.9539 123.462 15.4615 125.954 15.4615 129C15.4615 132.047 17.9539 134.539 21 134.539C24.0462 134.539 26.5385 132.047 26.5385 129C26.5385 125.954 24.0462 123.462 21 123.462ZM21 133.154C18.7154 133.154 16.8462 131.285 16.8462 129C16.8462 126.716 18.7154 124.847 21 124.847C23.2846 124.847 25.1539 126.716 25.1539 129C25.1539 131.285 23.2846 133.154 21 133.154ZM21.7846 129.047C21.7154 128.977 21.6923 128.885 21.6923 128.793V126.577C21.6923 126.393 21.5308 126.231 21.3461 126.231H20.6538C20.4692 126.231 20.3077 126.393 20.3077 126.577V129.37C20.3077 129.462 20.3538 129.554 20.4 129.624L22.1077 131.331C22.2461 131.47 22.4538 131.47 22.5923 131.331L23.0769 130.847C23.2154 130.708 23.2154 130.5 23.0769 130.362L21.7846 129.047Z" fill="#747474"/>
    <path d="M34.3154 133.176C36.0049 133.176 37.0645 132.316 37.0645 130.944V130.939C37.0645 129.875 36.4443 129.279 34.96 128.967L34.2031 128.806C33.3242 128.62 32.9678 128.308 32.9678 127.81V127.805C32.9678 127.204 33.5244 126.838 34.3057 126.838C35.1113 126.833 35.6338 127.224 35.7217 127.771L35.7314 127.829H36.9375L36.9326 127.766C36.8447 126.633 35.873 125.778 34.3105 125.778C32.7871 125.778 31.7031 126.628 31.7031 127.888V127.893C31.7031 128.942 32.3281 129.616 33.7686 129.919L34.5254 130.075C35.4336 130.271 35.7998 130.578 35.7998 131.086V131.091C35.7998 131.696 35.2041 132.116 34.3545 132.116C33.4609 132.116 32.8311 131.726 32.7725 131.135L32.7676 131.086H31.5469L31.5518 131.154C31.6396 132.37 32.6797 133.176 34.3154 133.176ZM40.6436 133.107C41.9961 133.107 42.7822 132.38 42.958 131.286L42.9678 131.247L41.8203 131.252L41.8105 131.271C41.6592 131.833 41.2734 132.121 40.6436 132.121C39.8184 132.121 39.3252 131.457 39.3252 130.324V130.314C39.3252 129.196 39.8135 128.542 40.6436 128.542C41.3076 128.542 41.7031 128.913 41.8154 129.431L41.8203 129.445H42.9678V129.426C42.8311 128.322 42.0107 127.561 40.6387 127.561C39.0322 127.561 38.0898 128.591 38.0898 130.314V130.324C38.0898 132.067 39.0371 133.107 40.6436 133.107ZM44.1738 133H45.3896V129.89C45.3896 129.089 45.8389 128.581 46.5615 128.581C47.2988 128.581 47.6357 129.001 47.6357 129.831V133H48.8516V129.548C48.8516 128.278 48.2021 127.561 47.0107 127.561C46.2393 127.561 45.7266 127.907 45.4727 128.479H45.3896V125.598H44.1738V133ZM52.5723 133.107C54.0225 133.107 54.7354 132.272 54.9062 131.584L54.9209 131.54H53.7637L53.749 131.574C53.6318 131.818 53.2559 132.15 52.5967 132.15C51.7715 132.15 51.2539 131.594 51.2393 130.637H54.9697V130.236C54.9697 128.625 54.0322 127.561 52.5137 127.561C50.9951 127.561 50.0234 128.659 50.0234 130.339V130.344C50.0234 132.043 50.9854 133.107 52.5723 133.107ZM52.5283 128.513C53.207 128.513 53.7002 128.947 53.7832 129.821H51.249C51.3418 128.972 51.8496 128.513 52.5283 128.513ZM58.1094 133.088C58.8613 133.088 59.4375 132.746 59.7305 132.165H59.8135V133H61.0342V125.598H59.8135V128.513H59.7305C59.4521 127.937 58.8418 127.575 58.1094 127.575C56.7568 127.575 55.9219 128.63 55.9219 130.329V130.339C55.9219 132.028 56.7715 133.088 58.1094 133.088ZM58.4902 132.062C57.6602 132.062 57.1572 131.413 57.1572 130.339V130.329C57.1572 129.255 57.665 128.601 58.4902 128.601C59.3154 128.601 59.833 129.26 59.833 130.329V130.339C59.833 131.408 59.3203 132.062 58.4902 132.062ZM64.3301 133.107C65.1016 133.107 65.6436 132.761 65.8926 132.189H65.9756V133H67.1914V127.663H65.9756V130.773C65.9756 131.574 65.5557 132.082 64.7695 132.082C64.0371 132.082 63.7295 131.662 63.7295 130.837V127.663H62.5137V131.115C62.5137 132.385 63.1289 133.107 64.3301 133.107ZM68.7246 133H69.9404V125.598H68.7246V133ZM73.7637 133.107C75.2139 133.107 75.9268 132.272 76.0977 131.584L76.1123 131.54H74.9551L74.9404 131.574C74.8232 131.818 74.4473 132.15 73.7881 132.15C72.9629 132.15 72.4453 131.594 72.4307 130.637H76.1611V130.236C76.1611 128.625 75.2236 127.561 73.7051 127.561C72.1865 127.561 71.2148 128.659 71.2148 130.339V130.344C71.2148 132.043 72.1768 133.107 73.7637 133.107ZM73.7197 128.513C74.3984 128.513 74.8916 128.947 74.9746 129.821H72.4404C72.5332 128.972 73.041 128.513 73.7197 128.513ZM79.3008 133.088C80.0527 133.088 80.6289 132.746 80.9219 132.165H81.0049V133H82.2256V125.598H81.0049V128.513H80.9219C80.6436 127.937 80.0332 127.575 79.3008 127.575C77.9482 127.575 77.1133 128.63 77.1133 130.329V130.339C77.1133 132.028 77.9629 133.088 79.3008 133.088ZM79.6816 132.062C78.8516 132.062 78.3486 131.413 78.3486 130.339V130.329C78.3486 129.255 78.8564 128.601 79.6816 128.601C80.5068 128.601 81.0244 129.26 81.0244 130.329V130.339C81.0244 131.408 80.5117 132.062 79.6816 132.062Z" fill="#444444"/>
    </g>
    <rect x="9.5" y="95.5" width="109" height="47" rx="7.5" stroke="#E5E5E5"/>
    <path d="M134.605 115H135.809V112.956H137.21V111.855H135.809V105.136H134.024C132.644 107.193 131.133 109.6 129.8 111.835V112.956H134.605V115ZM131.058 111.862V111.78C132.131 109.969 133.423 107.932 134.53 106.277H134.612V111.862H131.058Z" fill="#181818"/>
    <g clip-path="url(#clip5_3608_86103)">
    <path fill-rule="evenodd" clip-rule="evenodd" d="M139.731 127.616H130.269C130.085 127.616 129.923 127.777 129.923 127.962V133.616C129.923 134.123 130.338 134.539 130.846 134.539H139.154C139.662 134.539 140.077 134.123 140.077 133.616V127.962C140.077 127.777 139.915 127.616 139.731 127.616ZM133.385 132.692C133.385 132.831 133.292 132.923 133.154 132.923H132.231C132.092 132.923 132 132.831 132 132.692V131.769C132 131.631 132.092 131.539 132.231 131.539H133.154C133.292 131.539 133.385 131.631 133.385 131.769V132.692ZM133.385 130.385C133.385 130.523 133.292 130.616 133.154 130.616H132.231C132.092 130.616 132 130.523 132 130.385V129.462C132 129.323 132.092 129.231 132.231 129.231H133.154C133.292 129.231 133.385 129.323 133.385 129.462V130.385ZM135.692 132.692C135.692 132.831 135.6 132.923 135.462 132.923H134.539C134.4 132.923 134.308 132.831 134.308 132.692V131.769C134.308 131.631 134.4 131.539 134.539 131.539H135.462C135.6 131.539 135.692 131.631 135.692 131.769V132.692ZM135.692 130.385C135.692 130.523 135.6 130.616 135.462 130.616H134.539C134.4 130.616 134.308 130.523 134.308 130.385V129.462C134.308 129.323 134.4 129.231 134.539 129.231H135.462C135.6 129.231 135.692 129.323 135.692 129.462V130.385ZM138 132.692C138 132.831 137.908 132.923 137.769 132.923H136.846C136.708 132.923 136.615 132.831 136.615 132.692V131.769C136.615 131.631 136.708 131.539 136.846 131.539H137.769C137.908 131.539 138 131.631 138 131.769V132.692ZM138 130.385C138 130.523 137.908 130.616 137.769 130.616H136.846C136.708 130.616 136.615 130.523 136.615 130.385V129.462C136.615 129.323 136.708 129.231 136.846 129.231H137.769C137.908 129.231 138 129.323 138 129.462V130.385ZM139.154 124.616H138V124.154C138 123.785 137.7 123.462 137.308 123.462C136.938 123.462 136.615 123.762 136.615 124.154V124.616H133.385V124.154C133.385 123.785 133.085 123.462 132.692 123.462C132.323 123.462 132 123.762 132 124.154V124.616H130.846C130.338 124.616 129.923 125.031 129.923 125.539V126.116C129.923 126.3 130.085 126.462 130.269 126.462H139.731C139.915 126.462 140.077 126.3 140.077 126.116V125.539C140.077 125.031 139.662 124.616 139.154 124.616Z" fill="#747474"/>
    <path d="M145.869 133H147.129V125.954H145.869V133ZM148.74 133H149.956V129.89C149.956 129.089 150.405 128.581 151.128 128.581C151.865 128.581 152.202 129.001 152.202 129.831V133H153.418V129.548C153.418 128.278 152.769 127.561 151.577 127.561C150.806 127.561 150.293 127.907 150.039 128.479H149.956V127.663H148.74V133ZM157.646 133H158.906V130.671H160.459C161.89 130.671 162.856 129.724 162.856 128.317V128.308C162.856 126.896 161.89 125.954 160.459 125.954H157.646V133ZM160.151 126.984C161.055 126.984 161.582 127.468 161.582 128.312V128.322C161.582 129.167 161.055 129.655 160.151 129.655H158.906V126.984H160.151ZM164.121 133H165.337V129.899C165.337 129.138 165.869 128.654 166.68 128.654C166.89 128.654 167.09 128.684 167.285 128.723V127.634C167.168 127.6 166.978 127.575 166.792 127.575C166.089 127.575 165.601 127.912 165.42 128.483H165.337V127.663H164.121V133ZM170.449 133.107C172.046 133.107 173.018 132.062 173.018 130.334V130.324C173.018 128.605 172.041 127.561 170.449 127.561C168.862 127.561 167.881 128.61 167.881 130.324V130.334C167.881 132.062 168.848 133.107 170.449 133.107ZM170.449 132.121C169.604 132.121 169.121 131.462 169.121 130.339V130.329C169.121 129.206 169.604 128.542 170.449 128.542C171.289 128.542 171.772 129.206 171.772 130.329V130.339C171.772 131.462 171.294 132.121 170.449 132.121ZM176.533 134.875C178.091 134.875 179.077 134.099 179.077 132.868V127.663H177.861V128.542H177.798C177.495 127.937 176.919 127.575 176.182 127.575C174.805 127.575 173.965 128.64 173.965 130.183V130.192C173.965 131.706 174.805 132.751 176.157 132.751C176.895 132.751 177.476 132.438 177.783 131.867H177.866V132.888C177.866 133.571 177.383 133.957 176.553 133.957C175.874 133.957 175.469 133.718 175.386 133.376L175.381 133.361H174.165L174.16 133.376C174.282 134.274 175.127 134.875 176.533 134.875ZM176.533 131.784C175.688 131.784 175.21 131.135 175.21 130.192V130.183C175.21 129.24 175.688 128.586 176.533 128.586C177.373 128.586 177.886 129.24 177.886 130.183V130.192C177.886 131.135 177.378 131.784 176.533 131.784ZM180.566 133H181.782V129.899C181.782 129.138 182.314 128.654 183.125 128.654C183.335 128.654 183.535 128.684 183.73 128.723V127.634C183.613 127.6 183.423 127.575 183.237 127.575C182.534 127.575 182.046 127.912 181.865 128.483H181.782V127.663H180.566V133ZM186.875 133.107C188.325 133.107 189.038 132.272 189.209 131.584L189.224 131.54H188.066L188.052 131.574C187.935 131.818 187.559 132.15 186.899 132.15C186.074 132.15 185.557 131.594 185.542 130.637H189.272V130.236C189.272 128.625 188.335 127.561 186.816 127.561C185.298 127.561 184.326 128.659 184.326 130.339V130.344C184.326 132.043 185.288 133.107 186.875 133.107ZM186.831 128.513C187.51 128.513 188.003 128.947 188.086 129.821H185.552C185.645 128.972 186.152 128.513 186.831 128.513ZM192.505 133.107C193.818 133.107 194.771 132.429 194.771 131.413V131.403C194.771 130.627 194.277 130.183 193.232 129.948L192.368 129.758C191.792 129.626 191.567 129.436 191.567 129.123V129.118C191.567 128.718 191.958 128.454 192.5 128.454C193.071 128.454 193.423 128.728 193.511 129.064L193.516 129.079H194.658V129.069C194.58 128.205 193.804 127.561 192.505 127.561C191.245 127.561 190.366 128.225 190.366 129.187V129.191C190.366 129.978 190.85 130.456 191.865 130.681L192.729 130.876C193.315 131.008 193.55 131.213 193.55 131.525V131.535C193.55 131.936 193.13 132.209 192.524 132.209C191.919 132.209 191.562 131.95 191.436 131.579L191.431 131.569H190.225V131.579C190.327 132.482 191.147 133.107 192.505 133.107ZM197.915 133.107C199.229 133.107 200.181 132.429 200.181 131.413V131.403C200.181 130.627 199.688 130.183 198.643 129.948L197.778 129.758C197.202 129.626 196.978 129.436 196.978 129.123V129.118C196.978 128.718 197.368 128.454 197.91 128.454C198.481 128.454 198.833 128.728 198.921 129.064L198.926 129.079H200.068V129.069C199.99 128.205 199.214 127.561 197.915 127.561C196.655 127.561 195.776 128.225 195.776 129.187V129.191C195.776 129.978 196.26 130.456 197.275 130.681L198.14 130.876C198.726 131.008 198.96 131.213 198.96 131.525V131.535C198.96 131.936 198.54 132.209 197.935 132.209C197.329 132.209 196.973 131.95 196.846 131.579L196.841 131.569H195.635V131.579C195.737 132.482 196.558 133.107 197.915 133.107Z" fill="#444444"/>
    </g>
    <rect x="123.5" y="95.5" width="109" height="47" rx="7.5" stroke="#E5E5E5"/>
    </g>
    <rect x="0.5" y="0.5" width="241" height="151" rx="12.5" stroke="#C9C9C9"/>
    <defs>
    <clipPath id="clip0_3608_86103">
    <rect x="1" y="1" width="240" height="150" rx="12" fill="white"/>
    </clipPath>
    <clipPath id="clip1_3608_86103">
    <rect width="60" height="16" fill="white" transform="translate(15 69)"/>
    </clipPath>
    <clipPath id="clip2_3608_86103">
    <rect width="60" height="16" fill="white" transform="translate(91 69)"/>
    </clipPath>
    <clipPath id="clip3_3608_86103">
    <rect width="60" height="16" fill="white" transform="translate(167 69)"/>
    </clipPath>
    <clipPath id="clip4_3608_86103">
    <rect width="69" height="16" fill="white" transform="translate(15 121)"/>
    </clipPath>
    <clipPath id="clip5_3608_86103">
    <rect width="72" height="16" fill="white" transform="translate(129 121)"/>
    </clipPath>
    </defs>
</svg>    
